# xmcd
#
# Track frame offsets: 
#        150
#        27821
#        42839
#        60341
#        87490
#        104345
#        121102
#        210577
#        247574
#        260702
#
# Disc length: 3818 seconds
#
# Revision: 0
# Processed by: cddbd v1.5.2PL0 Copyright (c) Steve Scherf et al.
# Submitted via: ExactAudioCopy v0.99pb4
#
DISCID=780ee80a
DTITLE=Various Artist - Freedom Jazz France
DYEAR=2013
DGENRE=Jazz
TTITLE0=Stella Levitt - Note So High
TTITLE1=Octet De Dreux - Doorstep
TTITLE2=Eddie Louiss - Colchiques
TTITLE3=VS Quartet - A pou zot
TTITLE4=Les Prospections - Lido
TTITLE5=Sylvain Krief - Israel Suite (Edit)
TTITLE6=Francois Tusques - Le musichien
TTITLE7=Noah Howard - Creole Lady
TTITLE8=Chene Noir - La musique d'orphee
TTITLE9=Michel Roques - Ricardo
EXTD=
EXTT0=
EXTT1=
EXTT2=
EXTT3=
EXTT4=
EXTT5=
EXTT6=
EXTT7=
EXTT8=
EXTT9=
PLAYORDER=
